<?xml version="1.0" encoding="UTF-8" standalone="no"?>
<!-- Created with Inkscape (http://www.inkscape.org/) -->

<svg
   version="1.1"
   id="svg824"
   width="802.96985"
   height="347.47101"
   viewBox="0 0 802.96985 347.47101"
   sodipodi:docname="bitmapmajami.png.2023_09_25_19_49_26.0.svg"
   inkscape:version="1.1.2 (b8e25be833, 2022-02-05)"
   xmlns:inkscape="http://www.inkscape.org/namespaces/inkscape"
   xmlns:sodipodi="http://sodipodi.sourceforge.net/DTD/sodipodi-0.dtd"
   xmlns:xlink="http://www.w3.org/1999/xlink"
   xmlns="http://www.w3.org/2000/svg"
   xmlns:svg="http://www.w3.org/2000/svg">
  <defs
     id="defs828">
    <linearGradient
       inkscape:collect="always"
       id="linearGradient31182">
      <stop
         style="stop-color:#008400;stop-opacity:1;"
         offset="0"
         id="stop31178" />
      <stop
         style="stop-color:#008400;stop-opacity:0;"
         offset="1"
         id="stop31180" />
    </linearGradient>
    <linearGradient
       inkscape:collect="always"
       xlink:href="#linearGradient31182"
       id="linearGradient31184"
       x1="859.5648"
       y1="378.78967"
       x2="878.83557"
       y2="258.05115"
       gradientUnits="userSpaceOnUse"
       gradientTransform="matrix(0.82949963,0,0,0.82949963,-133.41236,-252.37027)" />
  </defs>
  <sodipodi:namedview
     id="namedview826"
     pagecolor="#ffffff"
     bordercolor="#999999"
     borderopacity="1"
     inkscape:pageshadow="0"
     inkscape:pageopacity="0"
     inkscape:pagecheckerboard="0"
     showgrid="false"
     inkscape:zoom="0.60322084"
     inkscape:cx="483.23927"
     inkscape:cy="267.72948"
     inkscape:window-width="1920"
     inkscape:window-height="991"
     inkscape:window-x="-9"
     inkscape:window-y="-9"
     inkscape:window-maximized="1"
     inkscape:current-layer="g830" />
  <g
     inkscape:groupmode="layer"
     inkscape:label="Image"
     id="g830">
    <path
       style="fill:#000000;fill-opacity:0.52549;stroke-width:0.923806"
       d="m 318.95987,260.80153 c -1.73413,-1.19041 -3.94365,-3.69686 -4.91006,-5.56989 -1.75709,-3.40552 -1.75709,-3.40552 4.88613,-13.30709 10.75569,-16.03107 10.9143,-16.53418 11.95222,-37.90936 0.49029,-10.09724 0.89891,-28.89529 0.90803,-41.77345 0.0184,-25.90514 0.88917,-31.77142 5.22225,-35.17983 5.61958,-4.42036 16.46773,-2.72448 19.44888,3.04043 1.99686,3.86149 3.26258,34.63775 2.5507,62.02088 -1.0533,40.51563 -3.11876,49.97329 -13.15122,60.21914 -5.32453,5.43779 -12.78035,9.36117 -19.19092,10.09863 -3.80407,0.4376 -5.08749,0.1649 -7.71601,-1.63946 z M 203.40393,247.01398 c -4.96608,-2.24899 -12.01247,-9.47411 -14.56018,-14.92948 -3.26696,-6.99553 -4.01135,-13.59576 -4.81958,-42.7327 -1.05534,-38.04588 -1.99084,-41.10932 -12.55388,-41.10932 -8.6141,0 -9.52605,3.03527 -10.4085,34.64268 -0.58845,21.07754 -0.72756,22.36096 -2.81945,26.01542 -4.52975,7.91334 -11.33143,10.33164 -18.58093,6.60635 -7.2992,-3.75082 -7.64406,-5.23717 -8.31264,-35.82714 -0.58195,-26.62656 -1.13179,-29.31591 -4.20862,-30.86671 -5.51599,-2.78022 -10.64931,-0.57903 -13.34815,0.8166 -4.19523,2.16944 -4.78987,5.81941 -5.42467,33.29714 -0.63713,27.57896 -0.75966,28.14796 -6.86307,31.87102 -4.654777,2.83941 -8.233712,3.13636 -12.903629,1.07064 -6.377392,-2.82104 -6.917853,-5.15427 -7.961031,-34.36902 -1.135502,-31.80011 -1.315006,-32.3302 -13.86332,-40.93827 -3.232709,-2.21762 -3.790672,-3.08091 -3.790672,-5.86504 0,-4.57934 4.035159,-8.181 10.720627,-9.56889 6.898841,-1.43219 13.133725,-0.42012 20.541746,3.33438 3.383445,1.7148 7.043539,3.12558 8.133549,3.13508 1.09001,0.01 4.92381,-1.6198 8.77614,-2.97021 6.23398,-2.18527 7.59429,-2.98872 16.49427,-3.00236 4.03693,0.26357 9.98611,0.12176 16.95533,3.44939 3.99045,1.90535 7.7613,3.46427 8.37968,3.46427 0.61837,0 5.67964,-1.68918 11.22072,-3.82307 8.92972,-3.43886 12.1623,-2.83741 19.12786,-2.70933 12.06196,1.73122 21.90025,7.359 25.26957,15.12327 1.59381,4.8827 2.55297,6.42862 3.18933,38.52317 0.36772,18.54538 1.07269,34.9903 1.56662,36.54426 1.56612,4.92725 3.74174,8.42518 6.86912,11.04407 6.3888,5.35 7.67679,9.67668 4.45405,14.96218 -3.83628,6.29177 -13.29131,8.42961 -21.28029,4.81162 z m 244.91563,-30.14431 c -1.82922,-0.90111 -4.41427,-3.55387 -6.23165,-6.3949 l -3.10569,-4.85499 -8.08734,4.15801 c -10.96165,5.63583 -20.74425,7.57934 -30.78447,6.11596 -17.88929,-4.30727 -24.26263,-9.03529 -24.7303,-22.30219 -0.28313,-8.18195 -0.09,-9.49753 1.99932,-13.62064 5.30832,-10.47547 14.54756,-15.03302 33.41865,-16.48477 7.64078,-0.58779 19.10843,-2.10522 21.94037,-2.90317 1.2569,-0.35417 1.61665,-1.45986 1.61665,-4.96883 -0.96833,-12.61461 -8.62198,-13.35885 -16.93874,-13.37245 -8.26419,0.19481 -8.61825,0.61173 -12.6535,5.48605 -2.13849,3.67557 -8.04814,5.72414 -10.62673,6.05757 -6.121,0.33294 -10.66392,-3.28398 -11.46133,-9.03935 -0.45813,-17.17849 21.71024,-20.0243 35.51745,-20.31379 19.31209,-0.46699 24.51428,2.15653 30.17823,5.05493 13.22458,6.76741 13.84348,15.18198 14.02928,57.35343 0.11278,25.59922 -0.0649,29.94658 -1.25432,30.70236 -2.19091,1.39206 -9.40177,1.01357 -12.82588,-0.67323 z m -21.47095,-22.29111 c 5.40687,-3.11229 10.24833,-8.1681 9.3541,-11.82824 -0.81244,-3.32537 -2.71754,-6.33179 -11.4136,-6.33179 -6.78326,-0.22852 -16.58561,3.06151 -20.25093,8.50186 -3.72677,4.4224 -3.41204,11.08115 1.8262,12.68578 8.07971,2.86269 14.30387,0.86917 20.48423,-3.02761 z m 64.00998,21.4381 c -1.69506,-0.86242 -3.67246,-2.46934 -4.39423,-3.57088 -2.26652,-3.45916 -3.08963,-14.81177 -3.11909,-43.01906 -0.0332,-31.72763 0.49722,-35.01868 6.57731,-40.81508 4.43251,-4.22569 7.23946,-4.42906 15.93849,-1.15475 7.60466,2.86238 9.42569,2.87286 16.05236,0.0924 10.82263,-4.5411 24.87487,-3.97255 32.22538,1.30383 4.69895,3.37304 6.205,3.41416 13.44462,0.36706 21.81261,-9.18079 41.16948,-4.89426 46.88531,10.38261 2.81947,7.53569 3.93373,21.85897 3.57696,45.98002 -0.36356,24.57865 -0.76039,26.0057 -8.31316,29.89247 -3.78616,1.94842 -4.66668,2.07184 -8.12926,1.13945 -2.13579,-0.57509 -5.40875,-2.44265 -7.27321,-4.15011 -3.39009,-3.10446 -3.39009,-3.10446 -3.86647,-29.2752 -0.40852,-22.44751 -0.7035,-26.58989 -2.07325,-29.11703 -2.3318,-4.30216 -5.04866,-5.83035 -10.35821,-5.8264 -5.68788,0.005 -10.12363,2.46122 -11.08974,6.14276 -0.37959,1.44647 -0.96082,13.6463 -1.29154,27.11076 -0.42247,17.2019 -0.95293,25.10286 -1.78384,26.57288 -2.26918,4.01444 -7.90446,6.68408 -14.10924,6.68408 -5.07697,0 -5.91346,-0.2794 -8.21614,-2.74443 -3.95186,-4.2305 -4.82371,-9.58321 -5.57174,-34.20775 -0.889,-29.26479 -0.9997,-29.56176 -11.01957,-29.56176 -8.07936,0 -9.69712,1.22218 -11.96429,9.03867 -1.48564,5.12203 -1.86428,9.91 -2.17092,27.45163 -0.41774,23.89694 -0.9096,26.03604 -6.87523,29.90103 -4.42201,2.86493 -9.17987,3.36789 -13.0813,1.38285 z m 157.45365,0.55188 c -3.71483,-1.11167 -7.76677,-5.24032 -8.98,-9.15003 -0.6188,-1.99426 -1.20069,-15.99525 -1.48032,-35.619 -0.40836,-28.65721 -0.28128,-32.94758 1.11783,-37.73746 0.86824,-2.97236 2.33853,-6.16417 3.26724,-7.0929 3.3637,-3.36365 14.86538,-3.48489 17.74473,-0.18706 3.6289,4.15634 3.93889,7.7379 3.93889,45.51908 0,41.04633 0.20828,39.73812 -6.90526,43.36718 -3.96509,2.02282 -4.6982,2.09865 -8.70311,0.90019 z M 293.01298,214.1997 c -8.97289,-4.23672 -9.47327,-4.26687 -21.02695,-1.26701 -11.83841,3.0738 -22.36596,3.5941 -30.24421,1.49479 -12.94095,-3.4484 -17.11009,-9.17262 -17.06437,-23.42935 0.0329,-10.24793 2.16282,-15.02602 8.65507,-19.41589 7.84919,-5.30739 25.41727,-9.47216 39.98948,-9.48007 2.63441,-0.002 5.85617,-0.40803 7.15948,-0.90355 2.09657,-0.79711 2.36965,-1.42012 2.36965,-5.40622 0,-8.67739 -6.0836,-14.01246 -15.98151,-14.01512 -6.45068,-0.002 -9.38528,1.38226 -13.32351,6.28349 -3.96158,4.9303 -9.86385,7.27959 -14.46981,5.7595 -6.06124,-2.21236 -8.06473,-7.85276 -7.65346,-11.95907 1.19351,-11.56398 10.24915,-16.20332 33.8398,-17.33662 26.20651,-1.25898 39.40604,4.85642 42.94876,19.89833 1.68737,7.16431 3.9511,57.17997 2.90191,64.11535 -0.78544,5.19187 -3.14566,7.19173 -9.10656,7.71621 -2.82633,0.24868 -5.32371,-0.32189 -8.99377,-2.05477 z m -20.5705,-17.4878 c 3.97394,-0.1 13.95942,-7.41031 12.25626,-12.58909 -1.78436,-5.42571 -5.91592,-8.74357 -15.34263,-7.8633 -6.07556,0.56735 -13.43312,3.65917 -16.32567,6.86042 -3.74678,3.92573 -4.14131,10.64261 1.5365,13.54536 3.73846,1.84432 13.51205,1.86979 17.87554,0.0466 z M 336.30182,73.200938 c 20.78816,-9.986188 32.77246,21.527333 16.42486,29.910602 -23.90782,10.54399 -36.83548,-20.206858 -16.42486,-29.910602 z"
       id="path1043-7"
       sodipodi:nodetypes="ssssssssssssssssssssssssssssscscsssccssssssscscccssccccccsssscsccccssssssssssssssscsssssssssssssssssssssssssscsscsccssssscssccscccc" />
    <path
       style="fill:#5c0060;fill-opacity:1;stroke-width:0.923806"
       d="m 329.58662,254.74396 c -1.73414,-1.1904 -3.94367,-3.69685 -4.91007,-5.56989 -1.75709,-3.40552 -1.75709,-3.40552 4.88614,-13.30709 10.75568,-16.03108 10.9143,-16.53419 11.95221,-37.90936 0.49029,-10.09724 0.8989,-28.89529 0.90802,-41.77344 0.0184,-25.90515 0.88918,-31.77143 5.22225,-35.17983 5.61959,-4.42037 16.46773,-2.72449 19.44889,3.04042 1.99687,3.8615 3.26258,34.63775 2.55069,62.02087 -1.0533,40.51565 -3.11875,49.97331 -13.15121,60.21916 -5.32454,5.43778 -12.78036,9.36117 -19.19093,10.09862 -3.80406,0.4376 -5.08748,0.1649 -7.71599,-1.63946 z M 214.03067,240.95641 c -4.96607,-2.24899 -12.01247,-9.47412 -14.56018,-14.92948 -3.26695,-6.99553 -4.01136,-13.59575 -4.81959,-42.7327 -1.05533,-38.04588 -1.99083,-41.10931 -12.55388,-41.10931 -8.6141,0 -9.52604,3.03525 -10.40849,34.64267 -0.58846,21.07754 -0.72756,22.36096 -2.81945,26.01542 -4.52975,7.91334 -11.33144,10.33164 -18.58094,6.60636 -7.29919,-3.75083 -7.64405,-5.23717 -8.31263,-35.82716 -0.58195,-26.62655 -1.13179,-29.3159 -4.20862,-30.86671 -5.51599,-2.7802 -10.64931,-0.57902 -13.34815,0.81661 -4.19524,2.16944 -4.78988,5.81942 -5.42467,33.29715 -0.63714,27.57896 -0.75966,28.14795 -6.86307,31.87102 -4.65478,2.8394 -8.23372,3.13635 -12.903633,1.07063 -6.377392,-2.82104 -6.917853,-5.15427 -7.961031,-34.36902 -1.135502,-31.80011 -1.315005,-32.33021 -13.863319,-40.93827 -3.232709,-2.21762 -3.790673,-3.08091 -3.790673,-5.86504 0,-4.57934 4.035159,-8.18099 10.720627,-9.56889 6.898841,-1.43219 13.133726,-0.42012 20.541749,3.33439 3.38344,1.71479 7.04354,3.12557 8.13355,3.13507 1.09,0.01 4.92381,-1.61979 8.77614,-2.9702 6.23398,-2.18528 7.59428,-2.98872 16.49427,-3.00237 4.03693,0.26357 9.98611,0.12176 16.95532,3.4494 3.99045,1.90534 7.76131,3.46426 8.37969,3.46426 0.61837,0 5.67963,-1.68917 11.22072,-3.82306 8.92971,-3.43887 12.16229,-2.83741 19.12786,-2.70933 12.06197,1.73122 21.90024,7.359 25.26957,15.12325 1.59381,4.8827 2.55296,6.42862 3.18932,38.52318 0.36773,18.54537 1.0727,34.9903 1.56662,36.54426 1.56613,4.92725 3.74174,8.42519 6.86914,11.04407 6.38878,5.34999 7.67677,9.67667 4.45403,14.96218 -3.83628,6.29176 -13.2913,8.42962 -21.28028,4.81162 z M 458.94629,210.8121 c -1.82922,-0.90111 -4.41426,-3.55388 -6.23163,-6.39489 l -3.1057,-4.855 -8.08735,4.15802 c -10.96164,5.63581 -20.74425,7.57932 -30.78447,6.11596 -17.88928,-4.30728 -24.26262,-9.0353 -24.73029,-22.30221 -0.28314,-8.18194 -0.09,-9.49752 1.99932,-13.62063 5.30831,-10.47548 14.54757,-15.03302 33.41864,-16.48477 7.64078,-0.5878 19.10843,-2.10522 21.94037,-2.90317 1.2569,-0.35418 1.61666,-1.45986 1.61666,-4.96884 -0.96833,-12.6146 -8.62198,-13.35884 -16.93873,-13.37244 -8.2642,0.19481 -8.61825,0.61173 -12.65351,5.48605 -2.13849,3.67558 -8.04815,5.72413 -10.62674,6.05757 -6.121,0.33293 -10.66391,-3.28398 -11.46133,-9.03936 -0.45812,-17.17847 21.71025,-20.02429 35.51745,-20.31378 19.31209,-0.46699 24.51429,2.15654 30.17823,5.05493 13.2246,6.76741 13.8435,15.18197 14.02928,57.35343 0.11278,25.59922 -0.0649,29.94658 -1.25431,30.70236 -2.19091,1.39207 -9.40178,1.01358 -12.82589,-0.67323 z m -21.47093,-22.29112 c 5.40685,-3.11228 10.24831,-8.16809 9.35409,-11.82823 -0.81244,-3.32537 -2.71753,-6.33178 -11.4136,-6.33178 -6.78325,-0.22853 -16.58562,3.0615 -20.25093,8.50185 -3.72677,4.42239 -3.41203,11.08115 1.82621,12.68578 8.0797,2.86269 14.30386,0.86917 20.48423,-3.02762 z m 64.00996,21.43811 c -1.69505,-0.86243 -3.67244,-2.46933 -4.39422,-3.57089 -2.26652,-3.45914 -3.08964,-14.81177 -3.11908,-43.01906 -0.0332,-31.72762 0.49721,-35.01868 6.5773,-40.81506 4.4325,-4.2257 7.23946,-4.42907 15.93849,-1.15476 7.60467,2.86239 9.42569,2.87286 16.05235,0.0924 10.82263,-4.54112 24.87487,-3.97257 32.22541,1.30382 4.69895,3.37303 6.20502,3.41414 13.44457,0.36706 21.8126,-9.1808 41.16949,-4.89427 46.88531,10.3826 2.81946,7.53569 3.93373,21.85897 3.57697,45.98002 -0.36353,24.57866 -0.7604,26.0057 -8.31311,29.89247 -3.78615,1.94842 -4.66667,2.07184 -8.12928,1.13945 -2.13577,-0.57509 -5.40874,-2.44265 -7.27326,-4.1501 -3.39003,-3.10447 -3.39003,-3.10447 -3.86639,-29.2752 -0.40859,-22.44752 -0.70355,-26.58991 -2.07329,-29.11704 -2.33182,-4.30216 -5.04866,-5.83035 -10.35822,-5.82639 -5.68788,0.005 -10.12358,2.46121 -11.08976,6.14276 -0.37959,1.44646 -0.96078,13.6463 -1.29148,27.11075 -0.42252,17.2019 -0.95292,25.10287 -1.78385,26.57287 -2.26917,4.01445 -7.90446,6.6841 -14.10926,6.6841 -5.07697,0 -5.91346,-0.27941 -8.21613,-2.74445 -3.95188,-4.23048 -4.82372,-9.58319 -5.57176,-34.20773 -0.889,-29.2648 -0.99969,-29.56176 -11.01956,-29.56176 -8.07935,0 -9.69711,1.22216 -11.96429,9.03866 -1.48564,5.12203 -1.86428,9.91 -2.17092,27.45162 -0.41775,23.89696 -0.9096,26.03604 -6.87522,29.90104 -4.42203,2.86494 -9.17988,3.3679 -13.08132,1.38285 z m 157.45367,0.55187 c -3.71485,-1.11165 -7.7668,-5.2403 -8.98001,-9.15002 -0.61884,-1.99426 -1.20073,-15.99525 -1.48037,-35.61899 -0.40833,-28.65722 -0.28125,-32.94759 1.11789,-37.73747 0.86824,-2.97236 2.3385,-6.16416 3.26722,-7.0929 3.36367,-3.36365 14.86537,-3.48489 17.74475,-0.18705 3.62892,4.15633 3.93884,7.73789 3.93884,45.51907 0,41.04634 0.2083,39.73812 -6.90525,43.36719 -3.96506,2.02282 -4.69815,2.09863 -8.70307,0.90017 z m -355.29927,-2.36883 c -8.97289,-4.23672 -9.47327,-4.26687 -21.02695,-1.26701 -11.83841,3.0738 -22.36597,3.5941 -30.24422,1.49479 -12.94095,-3.44841 -17.11008,-9.17263 -17.06435,-23.42934 0.0329,-10.24793 2.16281,-15.02602 8.65506,-19.41589 7.84919,-5.3074 25.41726,-9.47217 39.98947,-9.48009 2.63441,-0.002 5.85618,-0.40802 7.15949,-0.90354 2.09657,-0.79711 2.36965,-1.42011 2.36965,-5.40622 0,-8.6774 -6.0836,-14.01246 -15.98151,-14.01512 -6.45069,-0.002 -9.38528,1.38226 -13.32351,6.28348 -3.96158,4.9303 -9.86385,7.27961 -14.46982,5.75951 -6.06124,-2.21235 -8.06473,-7.85276 -7.65345,-11.95906 1.19351,-11.56399 10.24914,-16.20333 33.83979,-17.33663 26.20652,-1.25898 39.40605,4.85642 42.94877,19.89833 1.68736,7.16431 3.9511,57.17997 2.9019,64.11535 -0.78544,5.19187 -3.14565,7.19173 -9.10656,7.71621 -2.82631,0.24868 -5.32371,-0.3219 -8.99376,-2.05477 z m -20.5705,-17.4878 c 3.97393,-0.1 13.95941,-7.41031 12.25626,-12.58909 -1.78437,-5.42572 -5.91593,-8.74358 -15.34263,-7.8633 -6.07557,0.56734 -13.43312,3.65916 -16.32567,6.86041 -3.74679,3.92574 -4.14131,10.64262 1.5365,13.54537 3.73846,1.84432 13.51204,1.8698 17.87554,0.0466 z M 346.92856,67.143368 C 367.71673,57.15718 379.70101,88.6707 363.35341,97.053972 339.44559,107.59796 326.51793,76.847112 346.92856,67.143368 Z"
       id="path1043"
       sodipodi:nodetypes="ssssssssssssssssssssssssssssscscsssccssssssscscccssccccccsssscsccccssssssssssssssscsssssssssssssssssssssssssscsscsccssssscssccscccc" />
  </g>
  <g
     inkscape:groupmode="layer"
     id="layer3"
     inkscape:label="hojas" />
  <g
     inkscape:groupmode="layer"
     id="layer1"
     inkscape:label="Sonrisa">
    <path
       d="m 683.08959,107.37188 c -4.66569,-3.0777 -6.14742,-7.30945 -5.67967,-16.221332 0.54781,-10.435811 4.07443,-17.624404 12.38004,-25.235005 10.03272,-9.193153 25.43584,-15.512191 34.55105,-14.174357 4.0059,0.587933 4.94083,3.444812 4.24065,12.957838 -0.71992,9.78082 -3.3175,17.463646 -8.58574,25.393605 -9.12217,13.731001 -28.51842,22.812191 -36.90633,17.279251 z m 11.10427,-12.853705 c 9.24749,-6.362436 19.9852,-19.162064 19.9852,-23.822814 0,-1.688098 -0.50782,-2.128654 -2.45391,-2.128654 -4.87182,0 -23.37354,21.361391 -23.4039,27.02129 -0.0124,2.275351 1.37888,2.021939 5.87261,-1.069822 z m -64.87915,2.15577 C 620.01195,94.171577 609.346,88.927853 601.79615,81.410546 589.65857,69.325318 583.44334,48.23821 580.69884,28.648058 c -0.77817,-5.554562 -1.44516,-9.714063 -0.9088,-13.885501 29.29334,-1.332765 55.82945,9.540109 73.75078,31.008786 13.05625,14.520325 18.25373,35.621543 15.20316,44.372516 -1.03173,2.959605 -6.08695,5.991077 -12.58584,7.352269 -6.70085,1.403505 -20.84424,0.791534 -26.84343,-0.822183 z m 18.3302,-19.660875 c -0.0365,-2.763868 -3.34239,-8.834735 -7.734,-14.204642 -8.94019,-10.931743 -30.47341,-27.498684 -35.74198,-27.498684 -3.35732,0 -3.36496,0.889713 -0.0672,7.852334 5.57781,11.777294 19.95229,26.518738 31.55425,32.359676 8.39653,4.227238 12.03173,4.679407 11.98917,1.491316 z"
       style="fill:url(#linearGradient31184);fill-opacity:1;stroke-width:0.923806"
       id="path1328"
       sodipodi:nodetypes="sssssssssscssssccssscsscscc" />
    <path
       d="M 349.83144,312.56788 C 257.83925,308.16236 184.434,292.20094 124.94751,263.66857 c -13.7296,-6.58532 -18.53861,-9.77982 -18.53861,-12.31472 0,-3.93365 2.01395,-3.89397 15.32863,0.30211 63.57576,20.03569 128.3264,31.0123 205.46069,34.82994 27.60855,1.36644 92.5332,0.58196 118.24701,-1.42877 52.1869,-4.08086 94.34179,-10.62481 128.40885,-19.93366 8.48974,-2.31984 11.72773,-2.10797 14.80437,0.96866 4.30472,4.30472 1.08848,10.70039 -7.23128,14.37979 -29.71527,13.14149 -82.21623,24.81859 -132.28672,29.42278 -29.91027,2.75038 -73.30563,3.91848 -99.30901,2.67318 z m 242.71271,-10.66627 c -2.93197,-1.05225 -5.54283,-4.33029 -5.54283,-6.95925 0,-1.4739 1.65246,-5.46135 3.67214,-8.86097 8.63568,-14.53599 10.50693,-24.33152 5.37711,-28.14764 -4.22513,-3.14312 -11.45021,-3.48606 -32.14437,-1.52571 -24.42358,2.31364 -29.72712,2.33423 -31.72808,0.1232 -2.03945,-2.25357 -1.93752,-5.41733 0.21158,-6.56751 3.16992,-1.69649 18.89605,-5.40719 32.92784,-7.76956 26.83865,-4.51854 58.31524,-5.40979 61.97039,-1.75466 4.05259,4.0526 -4.56693,25.82363 -18.56097,46.88097 -8.67763,13.05758 -12.02474,16.07341 -16.18281,14.58113 z"
       style="fill:#000000;fill-opacity:0.52549;stroke-width:0.923806"
       id="path1459-7" />
    <path
       d="m 359.55499,307.21992 c -91.99218,-4.40551 -165.39743,-20.36692 -224.88393,-48.8993 -13.7296,-6.58532 -18.53861,-9.77983 -18.53861,-12.31472 0,-3.93366 2.01395,-3.89397 15.32863,0.30211 63.57576,20.03569 128.3264,31.0123 205.46069,34.82994 27.60855,1.36644 92.53321,0.58196 118.247,-1.42877 52.18691,-4.08086 94.34183,-10.6248 128.40889,-19.93367 8.48968,-2.31984 11.72772,-2.10797 14.80433,0.96868 4.30477,4.30471 1.08846,10.70039 -7.23125,14.37978 -29.71525,13.1415 -82.21627,24.81859 -132.28674,29.42278 -29.91027,2.75037 -73.30563,3.91848 -99.30901,2.67317 z M 602.2677,296.55366 c -2.93195,-1.05225 -5.5428,-4.33029 -5.5428,-6.95925 0,-1.47391 1.65244,-5.46134 3.67211,-8.86097 8.63567,-14.53599 10.50694,-24.33152 5.37714,-28.14765 -4.22514,-3.14311 -11.45024,-3.48605 -32.14444,-1.52569 -24.42353,2.31364 -29.72711,2.33422 -31.72802,0.12319 -2.03949,-2.25356 -1.93754,-5.41734 0.21161,-6.5675 3.16984,-1.6965 18.896,-5.4072 32.92782,-7.76958 26.83862,-4.51854 58.31522,-5.40978 61.97033,-1.75464 4.05261,4.05258 -4.56689,25.82362 -18.56096,46.88097 -8.67764,13.05757 -12.02468,16.0734 -16.18279,14.58112 z"
       style="fill:#56a62f;fill-opacity:0.968627;stroke-width:0.923806"
       id="path1459" />
  </g>
  <g
     inkscape:groupmode="layer"
     id="layer4"
     inkscape:label="sombras 1" />
</svg>
